<mxfile host="app.diagrams.net" modified="2024-05-22T09:18:30.291Z" agent="Mozilla/5.0 (Windows NT 10.0; Win64; x64) AppleWebKit/537.36 (KHTML, like Gecko) Chrome/124.0.0.0 Safari/537.36" etag="QNdt1B872XNnij3P7U8R" version="24.4.0" type="device">
  <diagram name="Страница — 1" id="sEFmsitN1N0w2VjkOHWs">
    <mxGraphModel dx="1728" dy="943" grid="1" gridSize="10" guides="1" tooltips="1" connect="1" arrows="1" fold="1" page="1" pageScale="1" pageWidth="827" pageHeight="1169" math="0" shadow="0">
      <root>
        <mxCell id="0" />
        <mxCell id="1" parent="0" />
        <mxCell id="KjsG-unN563CqwGZqQDX-1" value="app-billing" style="rounded=1;whiteSpace=wrap;html=1;fillColor=#fff2cc;strokeColor=default;" vertex="1" parent="1">
          <mxGeometry x="160" y="410" width="120" height="120" as="geometry" />
        </mxCell>
        <mxCell id="KjsG-unN563CqwGZqQDX-5" value="" style="endArrow=classic;html=1;rounded=0;entryX=0.25;entryY=0;entryDx=0;entryDy=0;" edge="1" parent="1" target="KjsG-unN563CqwGZqQDX-1">
          <mxGeometry width="50" height="50" relative="1" as="geometry">
            <mxPoint x="190" y="240" as="sourcePoint" />
            <mxPoint x="650" y="340" as="targetPoint" />
          </mxGeometry>
        </mxCell>
        <mxCell id="KjsG-unN563CqwGZqQDX-6" value="" style="endArrow=classic;html=1;rounded=0;exitX=0.75;exitY=0;exitDx=0;exitDy=0;" edge="1" parent="1" source="KjsG-unN563CqwGZqQDX-1">
          <mxGeometry width="50" height="50" relative="1" as="geometry">
            <mxPoint x="600" y="390" as="sourcePoint" />
            <mxPoint x="250" y="240" as="targetPoint" />
          </mxGeometry>
        </mxCell>
        <mxCell id="KjsG-unN563CqwGZqQDX-7" value="User" style="shape=umlActor;verticalLabelPosition=bottom;verticalAlign=top;html=1;outlineConnect=0;" vertex="1" parent="1">
          <mxGeometry x="205" y="160" width="30" height="60" as="geometry" />
        </mxCell>
        <mxCell id="KjsG-unN563CqwGZqQDX-12" value="app-order" style="rounded=1;whiteSpace=wrap;html=1;fillColor=#fff2cc;strokeColor=default;" vertex="1" parent="1">
          <mxGeometry x="440" y="140" width="120" height="120" as="geometry" />
        </mxCell>
        <mxCell id="KjsG-unN563CqwGZqQDX-13" value="" style="endArrow=classic;html=1;rounded=0;entryX=0;entryY=0.25;entryDx=0;entryDy=0;" edge="1" parent="1" target="KjsG-unN563CqwGZqQDX-12">
          <mxGeometry width="50" height="50" relative="1" as="geometry">
            <mxPoint x="260" y="170" as="sourcePoint" />
            <mxPoint x="390" y="250" as="targetPoint" />
          </mxGeometry>
        </mxCell>
        <mxCell id="KjsG-unN563CqwGZqQDX-14" value="" style="endArrow=classic;html=1;rounded=0;exitX=0;exitY=0.75;exitDx=0;exitDy=0;" edge="1" parent="1" source="KjsG-unN563CqwGZqQDX-12">
          <mxGeometry width="50" height="50" relative="1" as="geometry">
            <mxPoint x="330" y="260" as="sourcePoint" />
            <mxPoint x="260" y="230" as="targetPoint" />
          </mxGeometry>
        </mxCell>
        <mxCell id="KjsG-unN563CqwGZqQDX-16" value="" style="endArrow=classic;html=1;rounded=0;exitX=0.25;exitY=1;exitDx=0;exitDy=0;entryX=1.005;entryY=0.342;entryDx=0;entryDy=0;entryPerimeter=0;" edge="1" parent="1" source="KjsG-unN563CqwGZqQDX-12" target="KjsG-unN563CqwGZqQDX-1">
          <mxGeometry width="50" height="50" relative="1" as="geometry">
            <mxPoint x="350" y="270" as="sourcePoint" />
            <mxPoint x="400" y="220" as="targetPoint" />
            <Array as="points">
              <mxPoint x="470" y="450" />
            </Array>
          </mxGeometry>
        </mxCell>
        <mxCell id="KjsG-unN563CqwGZqQDX-21" style="edgeStyle=orthogonalEdgeStyle;rounded=0;orthogonalLoop=1;jettySize=auto;html=1;entryX=0;entryY=0.5;entryDx=0;entryDy=0;" edge="1" parent="1" source="KjsG-unN563CqwGZqQDX-18" target="KjsG-unN563CqwGZqQDX-20">
          <mxGeometry relative="1" as="geometry" />
        </mxCell>
        <mxCell id="KjsG-unN563CqwGZqQDX-18" value="ActiveMQ" style="shape=cylinder3;whiteSpace=wrap;html=1;boundedLbl=1;backgroundOutline=1;size=15;rotation=90;fillColor=#f8cecc;strokeColor=default;" vertex="1" parent="1">
          <mxGeometry x="725" y="125" width="70" height="150" as="geometry" />
        </mxCell>
        <mxCell id="KjsG-unN563CqwGZqQDX-19" style="edgeStyle=orthogonalEdgeStyle;rounded=0;orthogonalLoop=1;jettySize=auto;html=1;entryX=0.5;entryY=1;entryDx=0;entryDy=0;entryPerimeter=0;" edge="1" parent="1" source="KjsG-unN563CqwGZqQDX-12" target="KjsG-unN563CqwGZqQDX-18">
          <mxGeometry relative="1" as="geometry" />
        </mxCell>
        <mxCell id="KjsG-unN563CqwGZqQDX-20" value="app-notice" style="rounded=1;whiteSpace=wrap;html=1;fillColor=#fff2cc;strokeColor=default;" vertex="1" parent="1">
          <mxGeometry x="950" y="140" width="120" height="120" as="geometry" />
        </mxCell>
        <mxCell id="KjsG-unN563CqwGZqQDX-25" value="1" style="ellipse;whiteSpace=wrap;html=1;aspect=fixed;fillColor=#fff2cc;strokeColor=default;" vertex="1" parent="1">
          <mxGeometry x="40" y="260" width="20" height="20" as="geometry" />
        </mxCell>
        <mxCell id="KjsG-unN563CqwGZqQDX-26" value="2" style="ellipse;whiteSpace=wrap;html=1;aspect=fixed;fillColor=#fff2cc;strokeColor=default;" vertex="1" parent="1">
          <mxGeometry x="40" y="300" width="20" height="20" as="geometry" />
        </mxCell>
        <mxCell id="KjsG-unN563CqwGZqQDX-27" value="3" style="ellipse;whiteSpace=wrap;html=1;aspect=fixed;fillColor=#fff2cc;strokeColor=default;" vertex="1" parent="1">
          <mxGeometry x="260" y="140" width="20" height="20" as="geometry" />
        </mxCell>
        <mxCell id="KjsG-unN563CqwGZqQDX-29" value="4" style="ellipse;whiteSpace=wrap;html=1;aspect=fixed;fillColor=#fff2cc;strokeColor=default;" vertex="1" parent="1">
          <mxGeometry x="414" y="340" width="20" height="20" as="geometry" />
        </mxCell>
        <mxCell id="KjsG-unN563CqwGZqQDX-33" value="&lt;span style=&quot;color: rgb(33, 33, 33); text-align: left; white-space-collapse: preserve; background-color: rgb(255, 255, 255);&quot;&gt;&lt;font face=&quot;Verdana&quot;&gt;POST /api/register&lt;/font&gt;&lt;/span&gt;" style="text;html=1;align=center;verticalAlign=middle;whiteSpace=wrap;rounded=0;" vertex="1" parent="1">
          <mxGeometry x="60" y="255" width="120" height="30" as="geometry" />
        </mxCell>
        <mxCell id="KjsG-unN563CqwGZqQDX-35" style="edgeStyle=orthogonalEdgeStyle;rounded=0;orthogonalLoop=1;jettySize=auto;html=1;exitX=0;exitY=0.5;exitDx=0;exitDy=0;entryX=0;entryY=0.75;entryDx=0;entryDy=0;" edge="1" parent="1" source="KjsG-unN563CqwGZqQDX-34" target="KjsG-unN563CqwGZqQDX-34">
          <mxGeometry relative="1" as="geometry" />
        </mxCell>
        <mxCell id="KjsG-unN563CqwGZqQDX-34" value="&lt;div style=&quot;background-color: rgb(255, 255, 255); line-height: 18px;&quot;&gt;&lt;font face=&quot;Verdana&quot;&gt;&lt;font style=&quot;font-size: 12px;&quot;&gt;&lt;span style=&quot;white-space: pre;&quot;&gt;{&quot;login&quot;: &quot;login&quot; ...&lt;/span&gt;&lt;/font&gt;&lt;span style=&quot;white-space: pre;&quot;&gt;}&lt;/span&gt;&lt;/font&gt;&lt;/div&gt;" style="text;html=1;align=center;verticalAlign=middle;whiteSpace=wrap;rounded=0;" vertex="1" parent="1">
          <mxGeometry x="290" y="255" width="60" height="30" as="geometry" />
        </mxCell>
        <mxCell id="KjsG-unN563CqwGZqQDX-41" value="&lt;span style=&quot;color: rgb(33, 33, 33); text-align: left; white-space-collapse: preserve; background-color: rgb(255, 255, 255);&quot;&gt;&lt;font face=&quot;Verdana&quot;&gt;PUT /&lt;/font&gt;&lt;/span&gt;&lt;font face=&quot;Verdana&quot; color=&quot;#212121&quot;&gt;&lt;span style=&quot;white-space-collapse: preserve;&quot;&gt;api/refill/{login}&lt;/span&gt;&lt;/font&gt;" style="text;html=1;align=center;verticalAlign=middle;whiteSpace=wrap;rounded=0;" vertex="1" parent="1">
          <mxGeometry x="60" y="295" width="140" height="30" as="geometry" />
        </mxCell>
        <mxCell id="KjsG-unN563CqwGZqQDX-44" value="&lt;div style=&quot;background-color: rgb(255, 255, 255); line-height: 18px;&quot;&gt;&lt;font face=&quot;Verdana&quot;&gt;&lt;span style=&quot;white-space: pre;&quot;&gt;{AccountDto}&lt;/span&gt;&lt;/font&gt;&lt;/div&gt;" style="text;html=1;align=center;verticalAlign=middle;whiteSpace=wrap;rounded=0;" vertex="1" parent="1">
          <mxGeometry x="260" y="295" width="90" height="30" as="geometry" />
        </mxCell>
        <mxCell id="KjsG-unN563CqwGZqQDX-45" value="" style="endArrow=classic;html=1;rounded=0;exitX=1;exitY=0.75;exitDx=0;exitDy=0;entryX=0.75;entryY=1;entryDx=0;entryDy=0;" edge="1" parent="1" source="KjsG-unN563CqwGZqQDX-1" target="KjsG-unN563CqwGZqQDX-12">
          <mxGeometry width="50" height="50" relative="1" as="geometry">
            <mxPoint x="510" y="330" as="sourcePoint" />
            <mxPoint x="560" y="280" as="targetPoint" />
            <Array as="points">
              <mxPoint x="530" y="500" />
            </Array>
          </mxGeometry>
        </mxCell>
        <mxCell id="KjsG-unN563CqwGZqQDX-46" value="5" style="ellipse;whiteSpace=wrap;html=1;aspect=fixed;fillColor=#fff2cc;strokeColor=default;" vertex="1" parent="1">
          <mxGeometry x="414" y="380" width="20" height="20" as="geometry" />
        </mxCell>
        <mxCell id="KjsG-unN563CqwGZqQDX-47" value="&lt;span style=&quot;text-align: left; background-color: rgb(255, 255, 255);&quot;&gt;&lt;font style=&quot;&quot; face=&quot;Verdana&quot;&gt;&lt;font color=&quot;#212121&quot;&gt;&lt;span style=&quot;white-space-collapse: preserve;&quot;&gt;POST /api/create-order&lt;/span&gt;&lt;/font&gt; &lt;/font&gt;&lt;/span&gt;" style="text;html=1;align=center;verticalAlign=middle;whiteSpace=wrap;rounded=0;" vertex="1" parent="1">
          <mxGeometry x="280" y="135" width="150" height="30" as="geometry" />
        </mxCell>
        <mxCell id="KjsG-unN563CqwGZqQDX-48" value="&lt;div style=&quot;text-align: left;&quot;&gt;&lt;font face=&quot;Verdana&quot; color=&quot;#212121&quot;&gt;&lt;span style=&quot;white-space-collapse: preserve; background-color: rgb(255, 255, 255);&quot;&gt;GET /&lt;/span&gt;&lt;/font&gt;&lt;span style=&quot;background-color: initial; text-align: center; white-space-collapse: preserve;&quot;&gt;&lt;font face=&quot;Verdana&quot; color=&quot;#212121&quot;&gt;api/account/{login}&lt;/font&gt;&lt;/span&gt;&lt;/div&gt;" style="text;html=1;align=center;verticalAlign=middle;whiteSpace=wrap;rounded=0;" vertex="1" parent="1">
          <mxGeometry x="410" y="335" width="216" height="30" as="geometry" />
        </mxCell>
        <mxCell id="KjsG-unN563CqwGZqQDX-49" value="&lt;span style=&quot;white-space-collapse: preserve; color: rgb(33, 33, 33); background-color: rgb(255, 255, 255);&quot;&gt;&lt;font face=&quot;Verdana&quot;&gt;PUT /&lt;/font&gt;&lt;/span&gt;&lt;font style=&quot;text-align: center;&quot; face=&quot;Verdana&quot; color=&quot;#212121&quot;&gt;&lt;span style=&quot;white-space-collapse: preserve;&quot;&gt;api/refill/{login}&lt;/span&gt;&lt;/font&gt;" style="text;whiteSpace=wrap;html=1;" vertex="1" parent="1">
          <mxGeometry x="440" y="375" width="140" height="30" as="geometry" />
        </mxCell>
        <mxCell id="KjsG-unN563CqwGZqQDX-50" value="&lt;div style=&quot;background-color: rgb(255, 255, 255); line-height: 18px;&quot;&gt;&lt;font face=&quot;Verdana&quot;&gt;&lt;span style=&quot;white-space: pre;&quot;&gt;{AccountDto}&lt;/span&gt;&lt;/font&gt;&lt;/div&gt;" style="text;html=1;align=center;verticalAlign=middle;whiteSpace=wrap;rounded=0;" vertex="1" parent="1">
          <mxGeometry x="610" y="335" width="90" height="30" as="geometry" />
        </mxCell>
        <mxCell id="KjsG-unN563CqwGZqQDX-51" value="&lt;div style=&quot;background-color: rgb(255, 255, 255); line-height: 18px;&quot;&gt;&lt;font face=&quot;Verdana&quot;&gt;&lt;span style=&quot;white-space: pre;&quot;&gt;{AccountDto}&lt;/span&gt;&lt;/font&gt;&lt;/div&gt;" style="text;html=1;align=center;verticalAlign=middle;whiteSpace=wrap;rounded=0;" vertex="1" parent="1">
          <mxGeometry x="610" y="375" width="90" height="30" as="geometry" />
        </mxCell>
        <mxCell id="KjsG-unN563CqwGZqQDX-56" value="&lt;span style=&quot;text-align: left; background-color: rgb(255, 255, 255);&quot;&gt;&lt;font style=&quot;&quot; face=&quot;Verdana&quot;&gt;&lt;font color=&quot;#212121&quot;&gt;&lt;span style=&quot;white-space-collapse: preserve;&quot;&gt;publish&lt;/span&gt;&lt;/font&gt;&lt;/font&gt;&lt;/span&gt;" style="text;html=1;align=center;verticalAlign=middle;whiteSpace=wrap;rounded=0;" vertex="1" parent="1">
          <mxGeometry x="540" y="160" width="150" height="30" as="geometry" />
        </mxCell>
        <mxCell id="KjsG-unN563CqwGZqQDX-57" value="&lt;span style=&quot;text-align: left; background-color: rgb(255, 255, 255);&quot;&gt;&lt;font style=&quot;&quot; face=&quot;Verdana&quot;&gt;&lt;font color=&quot;#212121&quot;&gt;&lt;span style=&quot;white-space-collapse: preserve;&quot;&gt;consume&lt;/span&gt;&lt;/font&gt;&lt;/font&gt;&lt;/span&gt;" style="text;html=1;align=center;verticalAlign=middle;whiteSpace=wrap;rounded=0;" vertex="1" parent="1">
          <mxGeometry x="820" y="160" width="150" height="30" as="geometry" />
        </mxCell>
        <mxCell id="KjsG-unN563CqwGZqQDX-58" value="&lt;div style=&quot;background-color: rgb(255, 255, 255); line-height: 18px;&quot;&gt;&lt;font face=&quot;Verdana&quot;&gt;&lt;span style=&quot;white-space: pre;&quot;&gt;{OrderDto}&lt;/span&gt;&lt;/font&gt;&lt;/div&gt;" style="text;html=1;align=center;verticalAlign=middle;whiteSpace=wrap;rounded=0;" vertex="1" parent="1">
          <mxGeometry x="280" y="195" width="90" height="30" as="geometry" />
        </mxCell>
        <mxCell id="KjsG-unN563CqwGZqQDX-59" value="6" style="ellipse;whiteSpace=wrap;html=1;aspect=fixed;fillColor=#fff2cc;strokeColor=default;" vertex="1" parent="1">
          <mxGeometry x="260" y="200" width="20" height="20" as="geometry" />
        </mxCell>
      </root>
    </mxGraphModel>
  </diagram>
</mxfile>
